<svg xmlns="http://www.w3.org/2000/svg" viewBox="0 0 512 512">
  <defs>
    <linearGradient id="bg" x1="0" y1="0" x2="1" y2="1">
      <stop offset="0%" stop-color="#030a10"/>
      <stop offset="52%" stop-color="#0b1621"/>
      <stop offset="100%" stop-color="#111e2b"/>
    </linearGradient>
    <linearGradient id="bull" x1="0" y1="1" x2="1" y2="0">
      <stop offset="0%" stop-color="#40c78d"/>
      <stop offset="100%" stop-color="#83e6c3"/>
    </linearGradient>
    <linearGradient id="bear" x1="0" y1="0" x2="1" y2="1">
      <stop offset="0%" stop-color="#ef6f84"/>
      <stop offset="100%" stop-color="#ff9aab"/>
    </linearGradient>
  </defs>
  <rect width="512" height="512" rx="112" fill="url(#bg)"/>
  <rect x="46" y="46" width="420" height="420" rx="96" fill="none" stroke="#344558" stroke-width="8"/>
  <path d="M120 360 L120 262" stroke="#8fa8bb" stroke-opacity=".55" stroke-width="12" stroke-linecap="round"/>
  <rect x="98" y="282" width="44" height="52" rx="14" fill="url(#bear)"/>
  <path d="M194 336 L194 182" stroke="#8fa8bb" stroke-opacity=".55" stroke-width="12" stroke-linecap="round"/>
  <rect x="172" y="206" width="44" height="104" rx="14" fill="url(#bull)"/>
  <path d="M268 366 L268 234" stroke="#8fa8bb" stroke-opacity=".55" stroke-width="12" stroke-linecap="round"/>
  <rect x="246" y="256" width="44" height="84" rx="14" fill="url(#bull)"/>
  <path d="M342 320 L342 154" stroke="#8fa8bb" stroke-opacity=".55" stroke-width="12" stroke-linecap="round"/>
  <rect x="320" y="180" width="44" height="112" rx="14" fill="url(#bull)"/>
  <path d="M104 390 C154 370 201 337 244 288 C276 252 316 232 348 206 C380 182 407 152 428 110" fill="none" stroke="url(#bull)" stroke-width="22" stroke-linecap="round" stroke-linejoin="round"/>
  <circle cx="428" cy="110" r="24" fill="#7fc7ff"/>
  <path d="M106 102 H208" stroke="#dbe8f3" stroke-opacity=".66" stroke-width="14" stroke-linecap="round"/>
  <path d="M106 136 H258" stroke="#dbe8f3" stroke-opacity=".3" stroke-width="14" stroke-linecap="round"/>
</svg>
