<svg width="1600" height="1600" viewBox="0 0 1600 1600" fill="none" xmlns="http://www.w3.org/2000/svg">
  <rect width="1600" height="1600" rx="96" fill="#07111A"/>
  <circle cx="1230" cy="310" r="330" fill="url(#paint0_radial)" fill-opacity="0.7"/>
  <circle cx="310" cy="1270" r="360" fill="url(#paint1_radial)" fill-opacity="0.35"/>
  <path d="M1184 436C1267 436 1334 503 1334 586C1334 669 1267 736 1184 736H1036" stroke="#2C4155" stroke-width="28" stroke-linecap="round"/>
  <path d="M1070 478L1012 536L1070 594" stroke="#2C4155" stroke-width="28" stroke-linecap="round" stroke-linejoin="round"/>
  <g opacity="0.42">
    <path d="M1046 760L1328 1042" stroke="#2C4155" stroke-width="32" stroke-linecap="round"/>
    <path d="M1328 760L1046 1042" stroke="#2C4155" stroke-width="32" stroke-linecap="round"/>
    <path d="M1020 898C1020 800.798 1098.8 722 1196 722C1293.2 722 1372 800.798 1372 898C1372 995.202 1293.2 1074 1196 1074C1098.8 1074 1020 995.202 1020 898Z" stroke="#2C4155" stroke-width="22"/>
  </g>
  <g filter="url(#filter0_d)">
    <rect x="426" y="206" width="520" height="1188" rx="74" fill="url(#paint2_linear)"/>
    <rect x="446" y="226" width="480" height="1148" rx="56" stroke="rgba(255,255,255,0.08)" stroke-width="6"/>
  </g>
  <rect x="512" y="306" width="184" height="18" rx="9" fill="#D7E6F3"/>
  <rect x="512" y="352" width="124" height="18" rx="9" fill="#6B839A"/>
  <rect x="512" y="466" width="348" height="408" rx="42" fill="#0E1822"/>
  <path d="M686 520L798 570V710C798 788 754 852 686 888C618 852 574 788 574 710V570L686 520Z" fill="url(#paint3_linear)"/>
  <path d="M638 698L676 736L736 660" stroke="#EAF9F1" stroke-width="28" stroke-linecap="round" stroke-linejoin="round"/>
  <rect x="512" y="958" width="348" height="20" rx="10" fill="#213243"/>
  <rect x="512" y="1012" width="280" height="20" rx="10" fill="#213243"/>
  <rect x="512" y="1124" width="184" height="56" rx="28" fill="url(#paint4_linear)"/>
  <g filter="url(#filter1_d)">
    <circle cx="1018" cy="1054" r="172" fill="#0E1721"/>
    <circle cx="1018" cy="1054" r="160" stroke="rgba(255,255,255,0.08)" stroke-width="8"/>
  </g>
  <path d="M1018 948C1075 948 1122 995 1122 1052V1090H914V1052C914 995 961 948 1018 948Z" fill="url(#paint5_linear)"/>
  <rect x="954" y="1080" width="128" height="114" rx="30" fill="url(#paint6_linear)"/>
  <circle cx="1018" cy="1136" r="18" fill="#07111A"/>
  <path d="M1018 1154V1190" stroke="#07111A" stroke-width="16" stroke-linecap="round"/>
  <defs>
    <filter id="filter0_d" x="330" y="132" width="712" height="1380" filterUnits="userSpaceOnUse" color-interpolation-filters="sRGB">
      <feFlood flood-opacity="0" result="BackgroundImageFix"/>
      <feColorMatrix in="SourceAlpha" type="matrix" values="0 0 0 0 0 0 0 0 0 0 0 0 0 0 0 0 0 0 127 0" result="hardAlpha"/>
      <feOffset dy="22"/>
      <feGaussianBlur stdDeviation="48"/>
      <feComposite in2="hardAlpha" operator="out"/>
      <feColorMatrix type="matrix" values="0 0 0 0 0.0117647 0 0 0 0 0.0470588 0 0 0 0 0.0901961 0 0 0 0.55 0"/>
      <feBlend mode="normal" in2="BackgroundImageFix" result="effect1_dropShadow"/>
      <feBlend mode="normal" in="SourceGraphic" in2="effect1_dropShadow" result="shape"/>
    </filter>
    <filter id="filter1_d" x="780" y="856" width="476" height="476" filterUnits="userSpaceOnUse" color-interpolation-filters="sRGB">
      <feFlood flood-opacity="0" result="BackgroundImageFix"/>
      <feColorMatrix in="SourceAlpha" type="matrix" values="0 0 0 0 0 0 0 0 0 0 0 0 0 0 0 0 0 0 127 0" result="hardAlpha"/>
      <feOffset dy="20"/>
      <feGaussianBlur stdDeviation="33"/>
      <feComposite in2="hardAlpha" operator="out"/>
      <feColorMatrix type="matrix" values="0 0 0 0 0.0117647 0 0 0 0 0.0470588 0 0 0 0 0.0901961 0 0 0 0.48 0"/>
      <feBlend mode="normal" in2="BackgroundImageFix" result="effect1_dropShadow"/>
      <feBlend mode="normal" in="SourceGraphic" in2="effect1_dropShadow" result="shape"/>
    </filter>
    <radialGradient id="paint0_radial" cx="0" cy="0" r="1" gradientUnits="userSpaceOnUse" gradientTransform="translate(1230 310) rotate(90) scale(330)">
      <stop stop-color="#378ADD"/>
      <stop offset="1" stop-color="#378ADD" stop-opacity="0"/>
    </radialGradient>
    <radialGradient id="paint1_radial" cx="0" cy="0" r="1" gradientUnits="userSpaceOnUse" gradientTransform="translate(310 1270) rotate(90) scale(360)">
      <stop stop-color="#1D9E75"/>
      <stop offset="1" stop-color="#1D9E75" stop-opacity="0"/>
    </radialGradient>
    <linearGradient id="paint2_linear" x1="686" y1="206" x2="686" y2="1394" gradientUnits="userSpaceOnUse">
      <stop stop-color="#0E1823"/>
      <stop offset="1" stop-color="#09121C"/>
    </linearGradient>
    <linearGradient id="paint3_linear" x1="574" y1="520" x2="798" y2="888" gradientUnits="userSpaceOnUse">
      <stop stop-color="#1D9E75"/>
      <stop offset="1" stop-color="#378ADD"/>
    </linearGradient>
    <linearGradient id="paint4_linear" x1="512" y1="1124" x2="696" y2="1180" gradientUnits="userSpaceOnUse">
      <stop stop-color="#1D9E75"/>
      <stop offset="1" stop-color="#378ADD"/>
    </linearGradient>
    <linearGradient id="paint5_linear" x1="914" y1="948" x2="1122" y2="1090" gradientUnits="userSpaceOnUse">
      <stop stop-color="#1D9E75"/>
      <stop offset="1" stop-color="#378ADD"/>
    </linearGradient>
    <linearGradient id="paint6_linear" x1="954" y1="1080" x2="1082" y2="1194" gradientUnits="userSpaceOnUse">
      <stop stop-color="#D6F4E7"/>
      <stop offset="1" stop-color="#CDE7FF"/>
    </linearGradient>
  </defs>
</svg>
